<svg id="Layer_1" data-name="Layer 1" xmlns="http://www.w3.org/2000/svg" viewBox="0 0 972.82 291"><defs><style>.cls-1{fill:#fff;}</style></defs><title>logo</title><path class="cls-1" d="M319.54,219.83a39.6,39.6,0,0,1-16.61-17.62q-5.71-11.57-5.72-27.85V86h19.43v89q0,15.14,7.61,23.42t21.52,8.29q14,0,21.66-8.29T375.1,175V86h19.42v88.36q0,16.29-5.71,27.85a39.6,39.6,0,0,1-16.66,17.62q-10.95,6-26.38,6T319.54,219.83Z" transform="translate(-23 -20.5)"/><path class="cls-1" d="M426,85.91h19.42V224.45H426Zm8.47,61.51h47.23a18.12,18.12,0,0,0,9.8-2.67,17.44,17.44,0,0,0,6.62-7.57,28.47,28.47,0,0,0,0-22.56,17.59,17.59,0,0,0-6.57-7.57,18.08,18.08,0,0,0-9.85-2.67H434.44V85.91h46.47a43.46,43.46,0,0,1,21.09,5,34.72,34.72,0,0,1,14.09,14,42.89,42.89,0,0,1,5,21,42.58,42.58,0,0,1-5.05,21,35,35,0,0,1-14.14,14.05,43.2,43.2,0,0,1-21,4.95H434.44Zm37.71,14.19,19.32-4.38,35.42,67.22h-23Z" transform="translate(-23 -20.5)"/><path class="cls-1" d="M570.67,219.83a39.68,39.68,0,0,1-16.62-17.62q-5.7-11.57-5.71-27.85V86h19.42v89q0,15.14,7.62,23.42t21.52,8.29q14,0,21.66-8.29T626.23,175V86h19.42v88.36q0,16.29-5.71,27.85a39.62,39.62,0,0,1-16.67,17.62q-10.95,6-26.37,6T570.67,219.83Z" transform="translate(-23 -20.5)"/><path class="cls-1" d="M747.93,102.76,687.66,206h62.18v18.47H663.76V207.69l60.75-103.21h-59V86h82.45Z" transform="translate(-23 -20.5)"/><path class="cls-1" d="M794.66,219.5a43.4,43.4,0,0,1-16.9-18.09q-6-11.72-6-27.14v-38q0-15.42,6-27.14A43.65,43.65,0,0,1,794.66,91q10.9-6.42,25.28-6.42a47.64,47.64,0,0,1,21.9,5.09,46.32,46.32,0,0,1,16.71,14.43,54.21,54.21,0,0,1,9.09,21.61h-19.9a30.85,30.85,0,0,0-6-11.57,29.79,29.79,0,0,0-10-7.85,27.85,27.85,0,0,0-26.66,1.33,27.15,27.15,0,0,0-9.91,11.47,39.47,39.47,0,0,0-3.52,17.19v38a39.55,39.55,0,0,0,3.52,17.14,26.8,26.8,0,0,0,9.91,11.47,27.09,27.09,0,0,0,14.85,4.05,28.41,28.41,0,0,0,11.85-2.57,28.07,28.07,0,0,0,9.91-7.62,30.11,30.11,0,0,0,6-12h19.9a53.75,53.75,0,0,1-9.14,21.62,46.51,46.51,0,0,1-16.76,14.42,47.25,47.25,0,0,1-21.8,5.1Q805.56,225.88,794.66,219.5Z" transform="translate(-23 -20.5)"/><path class="cls-1" d="M928.22,86h16.57l51,138.45H974.88L936.5,112.76,898.13,224.45H877.19ZM900.7,175.6h72.84v18.47H900.7Z" transform="translate(-23 -20.5)"/><polygon class="cls-1" points="0 56 122 0 245 56 245 93 122 36 0 93 0 56"/><polygon class="cls-1" points="122 63 0 119 0 234 122 291 245 234 245 119 201 102 201 213 122 250 41 213 41 138 100 111 100 185 122 195 144 185 144 73 122 63"/></svg>